<?xml version="1.0" encoding="UTF-8"?><svg id="Layer_2" xmlns="http://www.w3.org/2000/svg" viewBox="0 0 104 44"><g id="Layer_1-2"><g><rect width="104" height="44" style="fill:#fff;"/><rect x="2" y="2" width="100" height="40" style="fill:#262626;"/></g><path d="M18,16.5c1.24,.62,1.24,2.38,0,3l-2.5,1.25-3.07,1.54c-1.12,.56-2.43-.25-2.43-1.5v-5.57c0-1.25,1.31-2.06,2.43-1.5l3.07,1.54,2.5,1.25Z" style="fill:#fff;"/><rect x="2" y="34" width="100" height="4" style="fill:#fff;"/><rect x="4" y="6" width="2" height="24" style="fill:#fff; opacity:.5;"/><g><g><path d="M27.25,23.1c-.25,0-.5-.04-.74-.11-.24-.07-.45-.2-.63-.38s-.3-.39-.38-.63c-.08-.24-.11-.49-.11-.74s.04-.5,.11-.74c.07-.24,.2-.45,.38-.63s.39-.3,.63-.38c.24-.07,.49-.11,.74-.11s.5,.04,.74,.11c.24,.08,.45,.2,.63,.38s.3,.39,.38,.63c.07,.24,.11,.49,.11,.74s-.04,.5-.11,.74-.2,.45-.38,.63-.39,.3-.63,.38c-.24,.08-.49,.11-.74,.11Z" style="fill:#fff;"/><path d="M35.82,23.1c-.31,0-.62-.03-.93-.09s-.6-.16-.88-.31c-.28-.15-.52-.34-.74-.58-.22-.24-.39-.49-.53-.78-.13-.28-.22-.58-.28-.9s-.08-.63-.08-.94v-2.07c0-.31,.03-.62,.08-.94s.14-.62,.28-.9c.13-.28,.31-.54,.53-.78,.22-.24,.47-.43,.74-.58,.28-.15,.57-.25,.88-.31s.62-.09,.93-.09,.6,.03,.9,.08c.3,.05,.58,.14,.85,.28,.26,.13,.51,.3,.72,.51,.22,.21,.4,.44,.54,.71,.14,.26,.25,.54,.32,.84,.07,.29,.1,.59,.1,.89v.04h-2.36v-.02c0-.16-.02-.32-.05-.48-.03-.16-.1-.31-.19-.44-.09-.13-.21-.24-.36-.31-.15-.07-.3-.11-.47-.11-.18,0-.35,.05-.51,.16s-.27,.24-.35,.4-.14,.33-.16,.52c-.03,.18-.04,.37-.04,.55v2.07c0,.18,.01,.37,.04,.55,.03,.18,.08,.36,.16,.52s.2,.29,.35,.4,.32,.16,.51,.16c.16,0,.32-.04,.47-.11,.15-.08,.27-.18,.36-.31,.09-.13,.16-.28,.19-.44,.03-.16,.05-.32,.05-.48v-.02h2.36v.03c0,.3-.03,.6-.1,.89-.07,.29-.18,.57-.32,.84-.14,.26-.33,.5-.54,.71-.22,.21-.46,.38-.72,.51-.26,.13-.55,.22-.85,.28-.3,.05-.6,.08-.9,.08Z" style="fill:#fff;"/><path d="M44.5,23.1c-.31,0-.62-.03-.94-.09s-.62-.16-.9-.31-.53-.34-.75-.57c-.22-.23-.4-.49-.53-.78-.14-.29-.23-.59-.28-.91s-.08-.63-.08-.94v-2.07c0-.32,.03-.64,.08-.95s.15-.61,.28-.9c.14-.29,.32-.55,.53-.78,.22-.23,.47-.42,.75-.57s.58-.26,.89-.34c.31-.07,.63-.11,.95-.11s.64,.04,.95,.11c.31,.08,.61,.19,.89,.34s.53,.34,.75,.57c.22,.23,.4,.49,.53,.78,.14,.29,.23,.59,.28,.9s.08,.63,.08,.95v2.07c0,.31-.03,.62-.08,.94s-.15,.62-.28,.91c-.14,.29-.32,.55-.53,.78-.22,.23-.47,.42-.75,.57s-.58,.25-.9,.31c-.32,.06-.63,.09-.94,.09Zm0-1.97c.18,0,.36-.05,.53-.15,.17-.1,.29-.23,.38-.4s.14-.34,.17-.53c.03-.18,.04-.37,.04-.55v-2.07c0-.18-.01-.37-.04-.56-.03-.19-.09-.37-.18-.53-.09-.16-.22-.29-.39-.39-.17-.1-.34-.15-.53-.15s-.36,.05-.52,.16c-.16,.1-.28,.24-.37,.4s-.14,.33-.17,.52c-.03,.18-.04,.37-.04,.55v2.07c0,.18,.01,.37,.04,.55,.03,.18,.09,.36,.17,.53s.21,.3,.38,.4c.17,.1,.34,.15,.53,.15Z" style="fill:#fff;"/><path d="M49.78,22.97V14h2.36v1.28c.08-.2,.18-.38,.31-.56,.13-.18,.28-.33,.45-.47,.17-.13,.36-.23,.58-.29,.21-.06,.43-.09,.65-.09,.26,0,.53,.05,.79,.15,.26,.1,.48,.25,.66,.44s.33,.41,.45,.66c.11,.24,.21,.49,.28,.75,.07,.26,.11,.52,.14,.79,.02,.27,.03,.54,.03,.8v5.52h-2.36v-5.52c0-.17-.01-.35-.03-.53-.02-.18-.07-.35-.14-.51-.07-.16-.18-.3-.33-.41s-.31-.17-.48-.17-.33,.06-.48,.17c-.15,.12-.26,.25-.33,.41-.07,.16-.11,.33-.14,.51-.02,.18-.03,.35-.03,.53v5.52h-2.36Z" style="fill:#fff;"/></g><g><g><path d="M65.22,23.1c-.28,0-.55-.02-.82-.06-.27-.04-.53-.11-.78-.21-.25-.1-.49-.23-.72-.4-.22-.17-.41-.37-.56-.59-.15-.23-.26-.48-.35-.74s-.12-.54-.12-.81h2.23c0,.14,.03,.27,.09,.41s.14,.24,.25,.33c.11,.09,.23,.15,.37,.18,.14,.03,.28,.05,.41,.05s.28-.01,.41-.04c.14-.03,.26-.08,.38-.16,.11-.08,.21-.18,.28-.3,.07-.13,.1-.26,.1-.4,0-.15-.05-.28-.15-.41-.1-.12-.22-.21-.35-.28-.14-.06-.28-.11-.42-.15-.14-.03-.29-.07-.43-.1-.14-.03-.29-.07-.43-.11-.14-.04-.29-.09-.43-.14-.14-.05-.28-.11-.42-.16-.14-.06-.27-.12-.4-.2-.13-.07-.25-.16-.36-.26-.12-.1-.22-.2-.33-.31-.1-.11-.19-.23-.27-.35-.08-.13-.14-.26-.2-.4-.06-.14-.1-.28-.12-.43-.02-.15-.03-.3-.03-.45,0-.26,.04-.53,.11-.79,.07-.26,.18-.5,.33-.72,.14-.22,.32-.42,.54-.59,.21-.17,.44-.3,.69-.4,.25-.1,.51-.17,.78-.21,.27-.04,.54-.06,.8-.06s.53,.02,.79,.06,.52,.11,.77,.21c.25,.1,.47,.23,.68,.41,.21,.17,.38,.37,.53,.6,.14,.22,.25,.47,.33,.72,.07,.26,.11,.52,.11,.79h-2.23c0-.13-.02-.25-.07-.37-.05-.12-.12-.22-.22-.31-.1-.09-.21-.15-.33-.19-.12-.04-.24-.06-.37-.06s-.25,.02-.38,.05c-.13,.03-.24,.09-.34,.17-.1,.08-.18,.18-.23,.3-.06,.12-.09,.25-.09,.37,0,.15,.05,.29,.15,.41,.1,.12,.22,.21,.35,.27,.14,.06,.28,.11,.42,.15,.14,.04,.29,.08,.43,.11,.14,.03,.29,.07,.43,.11,.14,.04,.28,.08,.42,.13,.14,.05,.28,.1,.41,.16,.14,.06,.27,.13,.41,.21,.13,.08,.26,.16,.37,.25,.11,.09,.22,.2,.32,.31,.1,.12,.19,.24,.27,.36,.08,.13,.15,.26,.21,.4,.06,.14,.1,.28,.12,.42,.02,.14,.03,.29,.03,.44,0,.28-.04,.55-.12,.81-.08,.26-.2,.51-.35,.73-.16,.22-.35,.42-.57,.59s-.47,.3-.72,.4-.52,.16-.79,.2c-.27,.04-.54,.05-.82,.05Z" style="fill:#fff; opacity:.11;"/><path d="M73.88,23.1c-.31,0-.62-.03-.94-.09s-.62-.16-.9-.31-.53-.34-.75-.57c-.22-.23-.4-.49-.53-.78-.14-.29-.23-.59-.28-.91s-.08-.63-.08-.94v-2.07c0-.32,.03-.64,.08-.95s.15-.61,.28-.9c.14-.29,.32-.55,.53-.78,.22-.23,.47-.42,.75-.57s.58-.26,.89-.34c.31-.07,.63-.11,.95-.11s.64,.04,.95,.11c.31,.08,.61,.19,.89,.34s.53,.34,.75,.57c.22,.23,.4,.49,.53,.78,.14,.29,.23,.59,.28,.9s.08,.63,.08,.95v2.07c0,.31-.03,.62-.08,.94s-.15,.62-.28,.91c-.14,.29-.32,.55-.53,.78-.22,.23-.47,.42-.75,.57s-.58,.25-.9,.31c-.32,.06-.63,.09-.94,.09Zm0-1.97c.18,0,.36-.05,.53-.15,.17-.1,.29-.23,.38-.4s.14-.34,.17-.53c.03-.18,.04-.37,.04-.55v-2.07c0-.18-.01-.37-.04-.56-.03-.19-.09-.37-.18-.53-.09-.16-.22-.29-.39-.39-.17-.1-.34-.15-.53-.15s-.36,.05-.52,.16c-.16,.1-.28,.24-.37,.4s-.14,.33-.17,.52c-.03,.18-.04,.37-.04,.55v2.07c0,.18,.01,.37,.04,.55,.03,.18,.09,.36,.17,.53s.21,.3,.38,.4c.17,.1,.34,.15,.53,.15Z" style="fill:#fff; opacity:.11;"/><path d="M79.48,22.97v-1.97h1.97V12.25h-1.73v-1.97h4.07v10.71h1.73v1.97h-6.04Z" style="fill:#fff; opacity:.11;"/><path d="M91.16,23.1c-.31,0-.62-.03-.94-.09s-.62-.16-.9-.3c-.28-.14-.53-.33-.76-.57-.22-.24-.41-.49-.55-.78-.14-.28-.24-.58-.29-.9s-.08-.63-.08-.96v-2.07c0-.31,.03-.62,.08-.94s.15-.62,.28-.91c.14-.29,.32-.55,.53-.78,.22-.23,.47-.42,.75-.57s.58-.25,.9-.31,.63-.09,.94-.09,.62,.03,.94,.09c.32,.06,.62,.16,.9,.31s.53,.34,.75,.57c.22,.23,.4,.49,.53,.78,.14,.29,.23,.59,.28,.91s.08,.63,.08,.94v1.97h-4.74v.1c0,.21,.02,.41,.05,.61,.03,.2,.11,.39,.22,.56s.26,.31,.45,.41,.38,.16,.58,.16c.15,0,.29-.02,.43-.05s.26-.09,.38-.17c.12-.08,.2-.19,.27-.32,.06-.13,.1-.27,.11-.41h2.23c-.01,.28-.06,.54-.16,.8-.09,.26-.22,.5-.37,.72s-.34,.42-.56,.59c-.22,.17-.45,.31-.71,.41s-.52,.17-.79,.21c-.28,.04-.55,.06-.83,.06Zm-1.29-5.55h2.52v-.1c0-.21-.02-.41-.05-.61-.03-.2-.1-.39-.21-.56-.1-.17-.24-.31-.42-.41-.18-.1-.37-.16-.58-.16s-.4,.05-.58,.16-.32,.24-.42,.41c-.1,.17-.17,.36-.21,.56-.03,.2-.05,.41-.05,.61v.1Z" style="fill:#fff; opacity:.11;"/></g><g style="opacity:.2;"><path d="M65.22,23.1c-.28,0-.55-.02-.82-.06-.27-.04-.53-.11-.78-.21-.25-.1-.49-.23-.72-.4-.22-.17-.41-.37-.56-.59-.15-.23-.26-.48-.35-.74s-.12-.54-.12-.81h2.23c0,.14,.03,.27,.09,.41s.14,.24,.25,.33c.11,.09,.23,.15,.37,.18,.14,.03,.28,.05,.41,.05s.28-.01,.41-.04c.14-.03,.26-.08,.38-.16,.11-.08,.21-.18,.28-.3,.07-.13,.1-.26,.1-.4,0-.15-.05-.28-.15-.41-.1-.12-.22-.21-.35-.28-.14-.06-.28-.11-.42-.15-.14-.03-.29-.07-.43-.1-.14-.03-.29-.07-.43-.11-.14-.04-.29-.09-.43-.14-.14-.05-.28-.11-.42-.16-.14-.06-.27-.12-.4-.2-.13-.07-.25-.16-.36-.26-.12-.1-.22-.2-.33-.31-.1-.11-.19-.23-.27-.35-.08-.13-.14-.26-.2-.4-.06-.14-.1-.28-.12-.43-.02-.15-.03-.3-.03-.45,0-.26,.04-.53,.11-.79,.07-.26,.18-.5,.33-.72,.14-.22,.32-.42,.54-.59,.21-.17,.44-.3,.69-.4,.25-.1,.51-.17,.78-.21,.27-.04,.54-.06,.8-.06s.53,.02,.79,.06,.52,.11,.77,.21c.25,.1,.47,.23,.68,.41,.21,.17,.38,.37,.53,.6,.14,.22,.25,.47,.33,.72,.07,.26,.11,.52,.11,.79h-2.23c0-.13-.02-.25-.07-.37-.05-.12-.12-.22-.22-.31-.1-.09-.21-.15-.33-.19-.12-.04-.24-.06-.37-.06s-.25,.02-.38,.05c-.13,.03-.24,.09-.34,.17-.1,.08-.18,.18-.23,.3-.06,.12-.09,.25-.09,.37,0,.15,.05,.29,.15,.41,.1,.12,.22,.21,.35,.27,.14,.06,.28,.11,.42,.15,.14,.04,.29,.08,.43,.11,.14,.03,.29,.07,.43,.11,.14,.04,.28,.08,.42,.13,.14,.05,.28,.1,.41,.16,.14,.06,.27,.13,.41,.21,.13,.08,.26,.16,.37,.25,.11,.09,.22,.2,.32,.31,.1,.12,.19,.24,.27,.36,.08,.13,.15,.26,.21,.4,.06,.14,.1,.28,.12,.42,.02,.14,.03,.29,.03,.44,0,.28-.04,.55-.12,.81-.08,.26-.2,.51-.35,.73-.16,.22-.35,.42-.57,.59s-.47,.3-.72,.4-.52,.16-.79,.2c-.27,.04-.54,.05-.82,.05Z" style="fill:#fff;"/><path d="M73.88,23.1c-.31,0-.62-.03-.94-.09s-.62-.16-.9-.31-.53-.34-.75-.57c-.22-.23-.4-.49-.53-.78-.14-.29-.23-.59-.28-.91s-.08-.63-.08-.94v-2.07c0-.32,.03-.64,.08-.95s.15-.61,.28-.9c.14-.29,.32-.55,.53-.78,.22-.23,.47-.42,.75-.57s.58-.26,.89-.34c.31-.07,.63-.11,.95-.11s.64,.04,.95,.11c.31,.08,.61,.19,.89,.34s.53,.34,.75,.57c.22,.23,.4,.49,.53,.78,.14,.29,.23,.59,.28,.9s.08,.63,.08,.95v2.07c0,.31-.03,.62-.08,.94s-.15,.62-.28,.91c-.14,.29-.32,.55-.53,.78-.22,.23-.47,.42-.75,.57s-.58,.25-.9,.31c-.32,.06-.63,.09-.94,.09Zm0-1.97c.18,0,.36-.05,.53-.15,.17-.1,.29-.23,.38-.4s.14-.34,.17-.53c.03-.18,.04-.37,.04-.55v-2.07c0-.18-.01-.37-.04-.56-.03-.19-.09-.37-.18-.53-.09-.16-.22-.29-.39-.39-.17-.1-.34-.15-.53-.15s-.36,.05-.52,.16c-.16,.1-.28,.24-.37,.4s-.14,.33-.17,.52c-.03,.18-.04,.37-.04,.55v2.07c0,.18,.01,.37,.04,.55,.03,.18,.09,.36,.17,.53s.21,.3,.38,.4c.17,.1,.34,.15,.53,.15Z" style="fill:#fff;"/><path d="M79.48,22.97v-1.97h1.97V12.25h-1.73v-1.97h4.07v10.71h1.73v1.97h-6.04Z" style="fill:#fff;"/><path d="M91.16,23.1c-.31,0-.62-.03-.94-.09s-.62-.16-.9-.3c-.28-.14-.53-.33-.76-.57-.22-.24-.41-.49-.55-.78-.14-.28-.24-.58-.29-.9s-.08-.63-.08-.96v-2.07c0-.31,.03-.62,.08-.94s.15-.62,.28-.91c.14-.29,.32-.55,.53-.78,.22-.23,.47-.42,.75-.57s.58-.25,.9-.31,.63-.09,.94-.09,.62,.03,.94,.09c.32,.06,.62,.16,.9,.31s.53,.34,.75,.57c.22,.23,.4,.49,.53,.78,.14,.29,.23,.59,.28,.91s.08,.63,.08,.94v1.97h-4.74v.1c0,.21,.02,.41,.05,.61,.03,.2,.11,.39,.22,.56s.26,.31,.45,.41,.38,.16,.58,.16c.15,0,.29-.02,.43-.05s.26-.09,.38-.17c.12-.08,.2-.19,.27-.32,.06-.13,.1-.27,.11-.41h2.23c-.01,.28-.06,.54-.16,.8-.09,.26-.22,.5-.37,.72s-.34,.42-.56,.59c-.22,.17-.45,.31-.71,.41s-.52,.17-.79,.21c-.28,.04-.55,.06-.83,.06Zm-1.29-5.55h2.52v-.1c0-.21-.02-.41-.05-.61-.03-.2-.1-.39-.21-.56-.1-.17-.24-.31-.42-.41-.18-.1-.37-.16-.58-.16s-.4,.05-.58,.16-.32,.24-.42,.41c-.1,.17-.17,.36-.21,.56-.03,.2-.05,.41-.05,.61v.1Z" style="fill:#fff;"/></g></g><rect x="59.08" y="9" width="1" height="18" style="fill:#fff; opacity:.5;"/></g></g></svg>